<svg width="11" height="11" viewBox="0 0 11 11" fill="none"
  xmlns="http://www.w3.org/2000/svg">
  <path d="M9.81066 3.72192L7.25267 1.19041L8.0953 0.346575C8.32602 0.115525 8.60951 0 8.94576 0C9.28161 0 9.56489 0.115525 9.79561 0.346575L10.6382 1.19041C10.869 1.42146 10.9893 1.70033 10.9994 2.02701C11.0094 2.3533 10.8991 2.63196 10.6683 2.86301L9.81066 3.72192ZM0.601881 11C0.431348 11 0.288502 10.9421 0.173342 10.8264C0.0577806 10.7111 0 10.568 0 10.3973V8.69452C0 8.61416 0.0150471 8.5364 0.0451411 8.46126C0.0752351 8.38572 0.120376 8.31781 0.180564 8.25754L6.37994 2.04932L8.93793 4.61096L2.73856 10.8192C2.67837 10.8795 2.61076 10.9247 2.53572 10.9548C2.46029 10.9849 2.38245 11 2.30219 11H0.601881Z" fill="#6F4000"/>
</svg>
