<svg width="21" height="20" viewBox="0 0 21 20" fill="none"
  xmlns="http://www.w3.org/2000/svg">
  <path d="M2 18C1.45 18 0.979 17.8043 0.587 17.413C0.195667 17.021 0 16.55 0 16V2C0 1.45 0.195667 0.979 0.587 0.587C0.979 0.195667 1.45 0 2 0H13.175C13.4417 0 13.696 0.0500001 13.938 0.15C14.1793 0.25 14.3917 0.391667 14.575 0.575L17.425 3.425C17.6083 3.60833 17.75 3.82067 17.85 4.062C17.95 4.304 18 4.55833 18 4.825V9.4L9.4 18H2ZM9 15C9.83333 15 10.5417 14.7083 11.125 14.125C11.7083 13.5417 12 12.8333 12 12C12 11.1667 11.7083 10.4583 11.125 9.875C10.5417 9.29167 9.83333 9 9 9C8.16667 9 7.45833 9.29167 6.875 9.875C6.29167 10.4583 6 11.1667 6 12C6 12.8333 6.29167 13.5417 6.875 14.125C7.45833 14.7083 8.16667 15 9 15ZM4 7H11C11.2833 7 11.521 6.904 11.713 6.712C11.9043 6.52067 12 6.28333 12 6V4C12 3.71667 11.9043 3.479 11.713 3.287C11.521 3.09567 11.2833 3 11 3H4C3.71667 3 3.479 3.09567 3.287 3.287C3.09567 3.479 3 3.71667 3 4V6C3 6.28333 3.09567 6.52067 3.287 6.712C3.479 6.904 3.71667 7 4 7ZM12.5 20C12.3667 20 12.25 19.95 12.15 19.85C12.05 19.75 12 19.6333 12 19.5V18.425C12 18.3917 12.05 18.275 12.15 18.075L17 13.25L18.75 15.025L13.925 19.85C13.8917 19.8833 13.775 19.9333 13.575 20H12.5ZM19.4 14.35L17.625 12.6L18.475 11.75C18.575 11.65 18.6957 11.6 18.837 11.6C18.979 11.6 19.1 11.65 19.2 11.75L20.25 12.8C20.35 12.9 20.4 13.0167 20.4 13.15C20.4 13.2833 20.35 13.4 20.25 13.5L19.4 14.35Z" fill="#6F4000"/>
</svg>
